<svg width="55" height="14" viewBox="0 0 55 14" fill="none" xmlns="http://www.w3.org/2000/svg">
<path d="M0.494 0.399999H3.41V10.624H9.728V13H0.494V0.399999ZM17.6083 13.216C16.3003 13.216 15.1183 12.934 14.0623 12.37C13.0183 11.806 12.1963 11.032 11.5963 10.048C11.0083 9.052 10.7143 7.936 10.7143 6.7C10.7143 5.464 11.0083 4.354 11.5963 3.37C12.1963 2.374 13.0183 1.594 14.0623 1.03C15.1183 0.466 16.3003 0.184 17.6083 0.184C18.9163 0.184 20.0923 0.466 21.1363 1.03C22.1803 1.594 23.0023 2.374 23.6023 3.37C24.2023 4.354 24.5023 5.464 24.5023 6.7C24.5023 7.936 24.2023 9.052 23.6023 10.048C23.0023 11.032 22.1803 11.806 21.1363 12.37C20.0923 12.934 18.9163 13.216 17.6083 13.216ZM17.6083 10.732C18.3523 10.732 19.0243 10.564 19.6243 10.228C20.2243 9.88 20.6923 9.4 21.0283 8.788C21.3763 8.176 21.5503 7.48 21.5503 6.7C21.5503 5.92 21.3763 5.224 21.0283 4.612C20.6923 4 20.2243 3.526 19.6243 3.19C19.0243 2.842 18.3523 2.668 17.6083 2.668C16.8643 2.668 16.1923 2.842 15.5923 3.19C14.9923 3.526 14.5183 4 14.1703 4.612C13.8343 5.224 13.6663 5.92 13.6663 6.7C13.6663 7.48 13.8343 8.176 14.1703 8.788C14.5183 9.4 14.9923 9.88 15.5923 10.228C16.1923 10.564 16.8643 10.732 17.6083 10.732ZM35.5678 6.502H38.2318V11.614C37.5478 12.13 36.7558 12.526 35.8558 12.802C34.9558 13.078 34.0498 13.216 33.1378 13.216C31.8298 13.216 30.6538 12.94 29.6098 12.388C28.5658 11.824 27.7438 11.05 27.1438 10.066C26.5558 9.07 26.2618 7.948 26.2618 6.7C26.2618 5.452 26.5558 4.336 27.1438 3.352C27.7438 2.356 28.5718 1.582 29.6278 1.03C30.6838 0.466 31.8718 0.184 33.1918 0.184C34.2958 0.184 35.2978 0.37 36.1978 0.741999C37.0978 1.114 37.8538 1.654 38.4658 2.362L36.5938 4.09C35.6938 3.142 34.6078 2.668 33.3358 2.668C32.5318 2.668 31.8178 2.836 31.1938 3.172C30.5698 3.508 30.0838 3.982 29.7358 4.594C29.3878 5.206 29.2138 5.908 29.2138 6.7C29.2138 7.48 29.3878 8.176 29.7358 8.788C30.0838 9.4 30.5638 9.88 31.1758 10.228C31.7998 10.564 32.5078 10.732 33.2998 10.732C34.1398 10.732 34.8958 10.552 35.5678 10.192V6.502ZM47.4026 13.216C46.0946 13.216 44.9126 12.934 43.8566 12.37C42.8126 11.806 41.9906 11.032 41.3906 10.048C40.8026 9.052 40.5086 7.936 40.5086 6.7C40.5086 5.464 40.8026 4.354 41.3906 3.37C41.9906 2.374 42.8126 1.594 43.8566 1.03C44.9126 0.466 46.0946 0.184 47.4026 0.184C48.7106 0.184 49.8866 0.466 50.9306 1.03C51.9746 1.594 52.7966 2.374 53.3966 3.37C53.9966 4.354 54.2966 5.464 54.2966 6.7C54.2966 7.936 53.9966 9.052 53.3966 10.048C52.7966 11.032 51.9746 11.806 50.9306 12.37C49.8866 12.934 48.7106 13.216 47.4026 13.216ZM47.4026 10.732C48.1466 10.732 48.8186 10.564 49.4186 10.228C50.0186 9.88 50.4866 9.4 50.8226 8.788C51.1706 8.176 51.3446 7.48 51.3446 6.7C51.3446 5.92 51.1706 5.224 50.8226 4.612C50.4866 4 50.0186 3.526 49.4186 3.19C48.8186 2.842 48.1466 2.668 47.4026 2.668C46.6586 2.668 45.9866 2.842 45.3866 3.19C44.7866 3.526 44.3126 4 43.9646 4.612C43.6286 5.224 43.4606 5.92 43.4606 6.7C43.4606 7.48 43.6286 8.176 43.9646 8.788C44.3126 9.4 44.7866 9.88 45.3866 10.228C45.9866 10.564 46.6586 10.732 47.4026 10.732Z" fill="black"/>
</svg>
